<?xml version="1.0" encoding="UTF-8" standalone="no"?>
<!DOCTYPE svg PUBLIC "-//W3C//DTD SVG 1.1//EN"
 "http://www.w3.org/Graphics/SVG/1.1/DTD/svg11.dtd">
<!-- Generated by graphviz version 2.42.3 (20191010.1750)
 -->
<!-- Title: Tree Pages: 1 -->
<svg width="460pt" height="269pt"
 viewBox="0.00 0.00 460.00 269.00" xmlns="http://www.w3.org/2000/svg" xmlns:xlink="http://www.w3.org/1999/xlink">
<g id="graph0" class="graph" transform="scale(1 1) rotate(0) translate(4 265)">
<title>Tree</title>
<polygon fill="white" stroke="transparent" points="-4,4 -4,-265 456,-265 456,4 -4,4"/>
<!-- 0 -->
<g id="node1" class="node">
<title>0</title>
<path fill="#f6d6be" stroke="black" d="M265,-261C265,-261 183,-261 183,-261 177,-261 171,-255 171,-249 171,-249 171,-205 171,-205 171,-199 177,-193 183,-193 183,-193 265,-193 265,-193 271,-193 277,-199 277,-205 277,-205 277,-249 277,-249 277,-255 271,-261 265,-261"/>
<text text-anchor="middle" x="224" y="-245.8" font-family="Helvetica,sans-Serif" font-size="14.00">x1 &lt;= 0.197</text>
<text text-anchor="middle" x="224" y="-230.8" font-family="Helvetica,sans-Serif" font-size="14.00">mse = 0.098</text>
<text text-anchor="middle" x="224" y="-215.8" font-family="Helvetica,sans-Serif" font-size="14.00">samples = 200</text>
<text text-anchor="middle" x="224" y="-200.8" font-family="Helvetica,sans-Serif" font-size="14.00">value = 0.354</text>
</g>
<!-- 1 -->
<g id="node2" class="node">
<title>1</title>
<path fill="#eb9d65" stroke="black" d="M201,-157C201,-157 127,-157 127,-157 121,-157 115,-151 115,-145 115,-145 115,-101 115,-101 115,-95 121,-89 127,-89 127,-89 201,-89 201,-89 207,-89 213,-95 213,-101 213,-101 213,-145 213,-145 213,-151 207,-157 201,-157"/>
<text text-anchor="middle" x="164" y="-141.8" font-family="Helvetica,sans-Serif" font-size="14.00">x1 &lt;= 0.092</text>
<text text-anchor="middle" x="164" y="-126.8" font-family="Helvetica,sans-Serif" font-size="14.00">mse = 0.038</text>
<text text-anchor="middle" x="164" y="-111.8" font-family="Helvetica,sans-Serif" font-size="14.00">samples = 44</text>
<text text-anchor="middle" x="164" y="-96.8" font-family="Helvetica,sans-Serif" font-size="14.00">value = 0.689</text>
</g>
<!-- 0&#45;&gt;1 -->
<g id="edge1" class="edge">
<title>0&#45;&gt;1</title>
<path fill="none" stroke="black" d="M204.52,-192.88C199.49,-184.33 194.01,-175.01 188.75,-166.07"/>
<polygon fill="black" stroke="black" points="191.67,-164.14 183.59,-157.3 185.64,-167.69 191.67,-164.14"/>
<text text-anchor="middle" x="177.31" y="-177.8" font-family="Helvetica,sans-Serif" font-size="14.00">True</text>
</g>
<!-- 4 -->
<g id="node5" class="node">
<title>4</title>
<path fill="#fae6d7" stroke="black" d="M325,-157C325,-157 243,-157 243,-157 237,-157 231,-151 231,-145 231,-145 231,-101 231,-101 231,-95 237,-89 243,-89 243,-89 325,-89 325,-89 331,-89 337,-95 337,-101 337,-101 337,-145 337,-145 337,-151 331,-157 325,-157"/>
<text text-anchor="middle" x="284" y="-141.8" font-family="Helvetica,sans-Serif" font-size="14.00">x1 &lt;= 0.772</text>
<text text-anchor="middle" x="284" y="-126.8" font-family="Helvetica,sans-Serif" font-size="14.00">mse = 0.074</text>
<text text-anchor="middle" x="284" y="-111.8" font-family="Helvetica,sans-Serif" font-size="14.00">samples = 156</text>
<text text-anchor="middle" x="284" y="-96.8" font-family="Helvetica,sans-Serif" font-size="14.00">value = 0.259</text>
</g>
<!-- 0&#45;&gt;4 -->
<g id="edge4" class="edge">
<title>0&#45;&gt;4</title>
<path fill="none" stroke="black" d="M243.48,-192.88C248.51,-184.33 253.99,-175.01 259.25,-166.07"/>
<polygon fill="black" stroke="black" points="262.36,-167.69 264.41,-157.3 256.33,-164.14 262.36,-167.69"/>
<text text-anchor="middle" x="270.69" y="-177.8" font-family="Helvetica,sans-Serif" font-size="14.00">False</text>
</g>
<!-- 2 -->
<g id="node3" class="node">
<title>2</title>
<path fill="#e58139" stroke="black" d="M86,-53C86,-53 12,-53 12,-53 6,-53 0,-47 0,-41 0,-41 0,-12 0,-12 0,-6 6,0 12,0 12,0 86,0 86,0 92,0 98,-6 98,-12 98,-12 98,-41 98,-41 98,-47 92,-53 86,-53"/>
<text text-anchor="middle" x="49" y="-37.8" font-family="Helvetica,sans-Serif" font-size="14.00">mse = 0.018</text>
<text text-anchor="middle" x="49" y="-22.8" font-family="Helvetica,sans-Serif" font-size="14.00">samples = 20</text>
<text text-anchor="middle" x="49" y="-7.8" font-family="Helvetica,sans-Serif" font-size="14.00">value = 0.854</text>
</g>
<!-- 1&#45;&gt;2 -->
<g id="edge2" class="edge">
<title>1&#45;&gt;2</title>
<path fill="none" stroke="black" d="M123.78,-88.95C112.2,-79.43 99.59,-69.07 88.08,-59.62"/>
<polygon fill="black" stroke="black" points="90.27,-56.88 80.32,-53.24 85.82,-62.29 90.27,-56.88"/>
</g>
<!-- 3 -->
<g id="node4" class="node">
<title>3</title>
<path fill="#f0b489" stroke="black" d="M202,-53C202,-53 128,-53 128,-53 122,-53 116,-47 116,-41 116,-41 116,-12 116,-12 116,-6 122,0 128,0 128,0 202,0 202,0 208,0 214,-6 214,-12 214,-12 214,-41 214,-41 214,-47 208,-53 202,-53"/>
<text text-anchor="middle" x="165" y="-37.8" font-family="Helvetica,sans-Serif" font-size="14.00">mse = 0.013</text>
<text text-anchor="middle" x="165" y="-22.8" font-family="Helvetica,sans-Serif" font-size="14.00">samples = 24</text>
<text text-anchor="middle" x="165" y="-7.8" font-family="Helvetica,sans-Serif" font-size="14.00">value = 0.552</text>
</g>
<!-- 1&#45;&gt;3 -->
<g id="edge3" class="edge">
<title>1&#45;&gt;3</title>
<path fill="none" stroke="black" d="M164.35,-88.95C164.44,-80.72 164.53,-71.85 164.62,-63.48"/>
<polygon fill="black" stroke="black" points="168.12,-63.27 164.73,-53.24 161.12,-63.2 168.12,-63.27"/>
</g>
<!-- 5 -->
<g id="node6" class="node">
<title>5</title>
<path fill="#ffffff" stroke="black" d="M324,-53C324,-53 244,-53 244,-53 238,-53 232,-47 232,-41 232,-41 232,-12 232,-12 232,-6 238,0 244,0 244,0 324,0 324,0 330,0 336,-6 336,-12 336,-12 336,-41 336,-41 336,-47 330,-53 324,-53"/>
<text text-anchor="middle" x="284" y="-37.8" font-family="Helvetica,sans-Serif" font-size="14.00">mse = 0.015</text>
<text text-anchor="middle" x="284" y="-22.8" font-family="Helvetica,sans-Serif" font-size="14.00">samples = 110</text>
<text text-anchor="middle" x="284" y="-7.8" font-family="Helvetica,sans-Serif" font-size="14.00">value = 0.111</text>
</g>
<!-- 4&#45;&gt;5 -->
<g id="edge5" class="edge">
<title>4&#45;&gt;5</title>
<path fill="none" stroke="black" d="M284,-88.95C284,-80.72 284,-71.85 284,-63.48"/>
<polygon fill="black" stroke="black" points="287.5,-63.24 284,-53.24 280.5,-63.24 287.5,-63.24"/>
</g>
<!-- 6 -->
<g id="node7" class="node">
<title>6</title>
<path fill="#edaa79" stroke="black" d="M440,-53C440,-53 366,-53 366,-53 360,-53 354,-47 354,-41 354,-41 354,-12 354,-12 354,-6 360,0 366,0 366,0 440,0 440,0 446,0 452,-6 452,-12 452,-12 452,-41 452,-41 452,-47 446,-53 440,-53"/>
<text text-anchor="middle" x="403" y="-37.8" font-family="Helvetica,sans-Serif" font-size="14.00">mse = 0.036</text>
<text text-anchor="middle" x="403" y="-22.8" font-family="Helvetica,sans-Serif" font-size="14.00">samples = 46</text>
<text text-anchor="middle" x="403" y="-7.8" font-family="Helvetica,sans-Serif" font-size="14.00">value = 0.615</text>
</g>
<!-- 4&#45;&gt;6 -->
<g id="edge6" class="edge">
<title>4&#45;&gt;6</title>
<path fill="none" stroke="black" d="M325.62,-88.95C337.6,-79.43 350.65,-69.07 362.56,-59.62"/>
<polygon fill="black" stroke="black" points="364.94,-62.2 370.59,-53.24 360.58,-56.71 364.94,-62.2"/>
</g>
</g>
</svg>
